# xmcd
#
# Track frame offsets: 
#        150
#        17321
#        42532
#        56893
#        75690
#        95768
#        110572
#        127429
#        150895
#        170527
#        184354
#        199252
#        220847
#        232176
#
# Disc length: 3333 seconds
#
# Revision: 0
# Processed by: cddbd v1.5.2PL0 Copyright (c) Steve Scherf et al.
# Submitted via: ExactAudioCopy v1.0b1
#
DISCID=cc0d030e
DTITLE=Тарас Житинський на музику Ігоря Іванціва - Їхали батяри (Галиц
DTITLE=ький шансон)
DYEAR=1900
DGENRE=Chanson
TTITLE0=Усе життя шукаю пісню (сл. О. Смик)
TTITLE1=Цвіла калина (сл. М. Пархуць)
TTITLE2=Христос рожден (Коляда) (сл. О. Кушнір)
TTITLE3=Подорож на Кароліно-Бугаз (муз. та сл. Т. Житинський)
TTITLE4=Сліпа печаль (сл. М. Конечний)
TTITLE5=Галичанка (сл. А. Любко)
TTITLE6=Я живу у центрі Львова (сл. А. Любко)
TTITLE7=Храм Пантелемона (муз. та сл. В. Івасів)
TTITLE8=Ой, мороз, мороз (українська народна пісня)
TTITLE9=Ой рекруте, рекруте (сл. О. Смик)
TTITLE10=Душі ріка (сл. В. Наконечний)
TTITLE11=Танець не зі мною (народна пісня)
TTITLE12=Мені сьогодні було 20 літ (муз. та сл. Т. Житинський)
TTITLE13=Мурка (міжнародна пісня)
EXTD=
EXTT0=
EXTT1=
EXTT2=
EXTT3=
EXTT4=
EXTT5=
EXTT6=
EXTT7=
EXTT8=
EXTT9=
EXTT10=
EXTT11=
EXTT12=
EXTT13=
PLAYORDER=
